<svg width="91" height="15" viewBox="0 0 91 15" fill="none" xmlns="http://www.w3.org/2000/svg">
<path d="M9.47329 10.328C9.52729 10.328 9.59929 10.364 9.61729 10.436L10.8233 13.298C10.8773 13.46 10.8053 13.586 10.6073 13.622C10.4453 13.658 10.3553 13.73 10.3553 13.838C10.3553 13.946 10.4633 14 10.7513 14C11.9033 14.018 13.9553 14.054 15.7193 14.054C16.0613 14.054 16.1873 14 16.1873 13.874C16.1873 13.766 16.0793 13.694 15.8453 13.694C15.6833 13.676 15.4673 13.676 15.2693 13.622C14.6393 13.532 14.2433 13.1 13.6313 11.696C12.4073 8.96 9.38329 2.066 8.91529 1.058C8.60929 0.409999 8.44729 0.157999 8.26729 0.157999C8.06929 0.157999 7.87129 0.428 7.52929 1.202L2.72329 12.074C2.34529 12.938 1.98529 13.496 1.35529 13.622C1.17529 13.658 0.995289 13.676 0.779289 13.694C0.563289 13.694 0.437289 13.73 0.437289 13.874C0.437289 13.982 0.545289 14.054 0.797289 14.054C1.69729 14.054 2.88529 14 3.08329 14C4.03729 14 4.64929 14.054 5.45929 14.054C5.69329 14.054 5.83729 14.018 5.83729 13.874C5.83729 13.784 5.78329 13.694 5.51329 13.694C5.36929 13.676 5.08129 13.658 4.88329 13.622C4.50529 13.586 4.34329 13.424 4.34329 13.082C4.34329 12.866 4.45129 12.398 4.63129 11.93L5.18929 10.454C5.22529 10.364 5.26129 10.328 5.35129 10.328H9.47329ZM5.87329 8.888C5.81929 8.888 5.78329 8.852 5.80129 8.798L7.33129 4.946C7.36729 4.856 7.40329 4.82 7.45729 4.946L9.04129 8.798C9.05929 8.834 9.05929 8.888 8.95129 8.888H5.87329ZM17.0358 11.768C16.9818 13.208 16.8378 13.568 16.1718 13.658C15.9738 13.676 15.8838 13.676 15.7218 13.694C15.5058 13.712 15.4338 13.784 15.4338 13.874C15.4338 14 15.5238 14.054 15.7938 14.054C16.3338 14.054 17.6478 14 18.0978 14C19.2318 14.018 19.7178 14.054 20.1678 14.054C20.4558 14.054 20.5638 14 20.5638 13.874C20.5638 13.784 20.4918 13.73 20.2218 13.694C19.8978 13.676 19.7178 13.658 19.4118 13.586C18.9258 13.46 18.8898 13.01 18.8538 11.93L18.6918 6.872C20.0778 8.132 21.4638 9.32 22.3278 10.094C23.1018 10.796 24.3798 11.894 25.4958 12.83C26.7738 13.874 27.3318 14.27 27.6018 14.27C27.8358 14.27 27.9438 14.108 27.9438 13.208C27.9618 10.076 28.0158 6.89 28.1598 3.956C28.2138 2.966 28.3938 2.732 28.9338 2.66C29.0418 2.642 29.0958 2.642 29.2938 2.624C29.5278 2.606 29.5638 2.498 29.5638 2.426C29.5638 2.336 29.4918 2.264 29.2218 2.264C28.5738 2.264 27.7278 2.318 27.3318 2.318C26.6118 2.318 25.4958 2.264 24.9018 2.264C24.7398 2.264 24.5958 2.318 24.5958 2.444C24.5958 2.516 24.6678 2.606 24.8838 2.624C25.1358 2.642 25.3338 2.66 25.5318 2.696C26.2338 2.804 26.3418 3.218 26.3778 4.082L26.4678 9.59C25.9998 9.176 25.1538 8.456 23.3718 6.89C21.3738 5.126 18.8898 3.002 18.1158 2.39C17.6658 2.048 17.5938 2.048 17.5038 2.048C17.2698 2.048 17.2158 2.318 17.1978 2.84C17.1258 4.928 17.1258 8.546 17.0358 11.768ZM34.5076 11.21C34.5076 11.444 34.5076 12.11 34.4536 12.776C34.4356 13.226 34.3096 13.514 33.8776 13.622C33.7336 13.658 33.5716 13.676 33.3196 13.694C33.0856 13.694 33.0136 13.784 33.0136 13.856C33.0136 13.982 33.1036 14.054 33.3376 14.054C34.0936 14.054 35.4796 14 35.9476 14C36.5056 14 37.9816 14.054 39.1696 14.054C39.4036 14.054 39.4576 13.964 39.4576 13.874C39.4576 13.784 39.3676 13.694 39.1876 13.694C38.8816 13.676 38.5756 13.676 38.2696 13.604C37.6576 13.478 37.6396 13.046 37.6036 12.668C37.5676 12.002 37.5676 11.444 37.5676 11.21V10.112C37.5676 9.986 37.5856 9.338 37.8196 8.672C38.0356 8.024 40.3576 4.136 40.8976 3.506C41.1856 3.146 41.3656 2.912 41.8336 2.732C42.0316 2.678 42.2116 2.642 42.4456 2.624C42.6616 2.606 42.7516 2.534 42.7516 2.408C42.7516 2.3 42.6256 2.264 42.4456 2.264C42.1396 2.264 40.7536 2.318 40.5556 2.318C39.8896 2.318 39.3316 2.264 38.6476 2.264C38.3776 2.264 38.2876 2.336 38.2876 2.444C38.2876 2.57 38.3956 2.624 38.5396 2.642C39.0976 2.714 39.1696 2.858 39.1696 3.056C39.1696 3.254 39.0616 3.434 38.8996 3.776C38.5936 4.424 37.9996 5.558 36.8116 7.664C36.5416 7.196 34.5976 3.83 34.3456 3.38C34.2376 3.182 34.1836 3.056 34.1836 2.948C34.1836 2.822 34.2916 2.696 34.7776 2.642C35.0116 2.588 35.0656 2.534 35.0656 2.426C35.0656 2.336 34.9576 2.264 34.7596 2.264C33.6976 2.264 32.5456 2.318 32.2936 2.318C31.6636 2.318 30.4576 2.264 29.7016 2.264C29.5036 2.264 29.3776 2.336 29.3776 2.444C29.3776 2.534 29.4316 2.606 29.6116 2.642C29.7196 2.66 29.8996 2.696 29.9536 2.714C30.4936 2.822 30.6556 2.93 31.3216 3.938C31.8616 4.694 33.3196 7.07 34.0396 8.348C34.3276 8.888 34.5076 9.158 34.5076 10.004V11.21ZM46.5416 13.208C46.8656 14.018 46.9916 14.27 47.2076 14.27C47.4596 14.27 47.6936 13.91 47.9636 13.352C48.7556 11.624 50.0336 8.834 50.7716 7.088L53.9756 13.478C54.2276 14.018 54.3716 14.27 54.6056 14.27C54.8936 14.27 55.0736 13.766 55.2896 13.244C56.5496 10.13 58.0436 6.152 58.7276 4.334C59.1596 3.146 59.4296 2.786 59.9156 2.696C60.1676 2.642 60.2576 2.642 60.4196 2.624C60.6356 2.606 60.6896 2.534 60.6896 2.444C60.6896 2.318 60.5456 2.282 60.3476 2.282C59.7716 2.282 58.5296 2.318 58.4216 2.318C58.2776 2.318 57.4136 2.264 56.3336 2.264C56.0456 2.264 56.0096 2.39 56.0096 2.462C56.0096 2.552 56.1356 2.624 56.3156 2.624C57.1976 2.696 57.3056 2.876 57.3056 3.182C57.3056 3.398 57.1616 3.848 56.9636 4.55C56.5136 6.044 55.7936 8.312 55.2896 9.698L52.0856 3.038C51.8516 2.57 51.7616 2.3 51.5276 2.3C51.3656 2.3 51.2396 2.444 51.0776 2.84L48.2876 9.644C47.7116 8.204 46.5596 4.856 46.4156 4.406C46.1636 3.686 46.0016 3.218 46.0016 3.02C46.0016 2.822 46.1276 2.714 46.3436 2.678C46.5416 2.642 46.5776 2.642 46.7396 2.624C46.9016 2.624 47.0096 2.552 47.0096 2.444C47.0096 2.336 46.8836 2.264 46.6676 2.264C45.7856 2.264 44.5616 2.318 44.0936 2.318C43.8236 2.318 42.6716 2.264 41.6636 2.264C41.4296 2.264 41.3216 2.336 41.3216 2.426C41.3216 2.516 41.3756 2.588 41.5736 2.624C41.7176 2.66 41.8616 2.66 42.0416 2.714C42.4556 2.804 42.6356 3.146 42.9056 3.83L46.5416 13.208ZM62.5386 9.518C62.5386 11.066 62.5206 12.146 62.4306 12.794C62.3946 13.244 62.2506 13.568 61.9086 13.64C61.6926 13.676 61.5306 13.676 61.3866 13.694C61.2066 13.694 61.1166 13.784 61.1166 13.874C61.1166 14 61.2246 14.054 61.4946 14.054C61.9986 14.054 63.8706 14 63.9066 14C63.9966 14 65.8506 14.054 66.9666 14.054C67.2366 14.054 67.3086 13.964 67.3086 13.892C67.3086 13.802 67.2366 13.694 66.9666 13.694C66.7866 13.676 66.5166 13.676 66.3006 13.622C65.8146 13.514 65.7066 13.244 65.6706 12.848C65.5986 12.182 65.5806 10.706 65.5806 9.518V6.782C65.5806 4.352 65.5806 3.974 65.6346 3.47C65.7066 2.93 65.8506 2.768 66.2826 2.678C66.4626 2.642 66.4806 2.642 66.6426 2.624C66.8406 2.606 66.9666 2.57 66.9666 2.444C66.9666 2.336 66.9306 2.264 66.6426 2.264C66.0306 2.264 63.9966 2.318 63.9066 2.318C63.8526 2.318 62.1246 2.264 61.4946 2.264C61.1886 2.264 61.1346 2.354 61.1346 2.444C61.1346 2.552 61.2246 2.606 61.4406 2.624C61.6566 2.642 61.8366 2.66 61.9446 2.696C62.3406 2.75 62.4486 3.038 62.4846 3.452C62.5386 3.938 62.5386 4.352 62.5386 6.782V9.518ZM73.6665 6.98C73.6665 4.352 73.6845 4.118 73.7205 3.614C73.7565 3.056 73.8825 2.768 74.3325 2.696C74.5665 2.642 74.6385 2.642 74.8185 2.624C74.9625 2.624 75.1065 2.57 75.1065 2.426C75.1065 2.336 75.0345 2.264 74.7465 2.264C74.1705 2.264 72.0825 2.318 71.9925 2.318C71.3085 2.318 70.5165 2.264 69.5445 2.264C69.2205 2.264 69.0945 2.318 69.0945 2.444C69.0945 2.57 69.2385 2.606 69.4185 2.624C69.6525 2.642 69.8685 2.678 70.0125 2.714C70.3905 2.822 70.5345 3.074 70.5705 3.506C70.6065 4.01 70.6245 4.19 70.6245 6.782V9.518C70.6245 10.382 70.6065 11.246 70.6065 11.858C70.5525 13.298 70.4805 13.55 69.8325 13.658C69.6525 13.676 69.6165 13.676 69.4545 13.694C69.2385 13.694 69.1485 13.784 69.1485 13.856C69.1485 14 69.2745 14.054 69.5265 14.054C70.4445 14.054 71.2545 14 72.0105 14C73.7205 14 75.2145 14.09 77.6445 14.09C78.2385 14.09 78.3465 14.09 78.4905 13.676C78.6525 13.226 78.8865 11.66 78.8865 11.264C78.8865 11.048 78.8505 10.94 78.7425 10.94C78.5985 10.94 78.5445 11.084 78.5085 11.264C78.3105 12.128 77.9685 12.506 77.5185 12.686C77.0685 12.848 76.6365 12.866 75.7365 12.866C74.3865 12.866 74.0985 12.812 73.8645 12.488C73.6125 12.146 73.6665 11.012 73.6665 9.536V6.98ZM84.8286 6.98C84.8286 4.352 84.8466 4.118 84.8826 3.614C84.9186 3.056 85.0446 2.768 85.4946 2.696C85.7286 2.642 85.8006 2.642 85.9806 2.624C86.1246 2.624 86.2686 2.57 86.2686 2.426C86.2686 2.336 86.1966 2.264 85.9086 2.264C85.3326 2.264 83.2446 2.318 83.1546 2.318C82.4706 2.318 81.6786 2.264 80.7066 2.264C80.3826 2.264 80.2566 2.318 80.2566 2.444C80.2566 2.57 80.4006 2.606 80.5806 2.624C80.8146 2.642 81.0306 2.678 81.1746 2.714C81.5526 2.822 81.6966 3.074 81.7326 3.506C81.7686 4.01 81.7866 4.19 81.7866 6.782V9.518C81.7866 10.382 81.7686 11.246 81.7686 11.858C81.7146 13.298 81.6426 13.55 80.9946 13.658C80.8146 13.676 80.7786 13.676 80.6166 13.694C80.4006 13.694 80.3106 13.784 80.3106 13.856C80.3106 14 80.4366 14.054 80.6886 14.054C81.6066 14.054 82.4166 14 83.1726 14C84.8826 14 86.3766 14.09 88.8066 14.09C89.4006 14.09 89.5086 14.09 89.6526 13.676C89.8146 13.226 90.0486 11.66 90.0486 11.264C90.0486 11.048 90.0126 10.94 89.9046 10.94C89.7606 10.94 89.7066 11.084 89.6706 11.264C89.4726 12.128 89.1306 12.506 88.6806 12.686C88.2306 12.848 87.7986 12.866 86.8986 12.866C85.5486 12.866 85.2606 12.812 85.0266 12.488C84.7746 12.146 84.8286 11.012 84.8286 9.536V6.98Z" fill="#141414"/>
</svg>
